Coordinates
version=1
nRows=14
nColumns=36
inDegrees=yes

Units are S.I. units (second, meters, Newtons, ...)
If the header above contains a line with 'inDegrees', this indicates whether rotational values are in degrees (yes) or radians (no).

endheader
time	pelvis_tilt	pelvis_list	pelvis_rotation	pelvis_tx	pelvis_ty	pelvis_tz	hip_flexion_r	hip_adduction_r	hip_rotation_r	knee_angle_r	knee_angle_r_beta	ankle_angle_r	subtalar_angle_r	mtp_angle_r	hip_flexion_l	hip_adduction_l	hip_rotation_l	knee_angle_l	knee_angle_l_beta	ankle_angle_l	subtalar_angle_l	mtp_angle_l	lumbar_extension	lumbar_bending	lumbar_rotation	arm_flex_r	arm_add_r	arm_rot_r	elbow_flex_r	pro_sup_r	arm_flex_l	arm_add_l	arm_rot_l	elbow_flex_l	pro_sup_l
      0.00000000	    -11.56345415	     -0.09281156	     -1.56803414	      1.31501389	      0.91978712	     -0.04081393	     10.61242283	    -10.68659583	     -8.90587540	      0.49873985	      0.00870465	     -0.56643932	     -1.71828899	     -6.66030813	     10.84014547	     -6.88725540	     -7.83776910	      0.40132946	      0.00700452	      4.40891712	      2.38577436	     -6.66030813	      8.35166966	     -1.75184141	     -5.46978498	     44.27621688	     12.76662230	     52.65090455	    119.99792057	     77.60453291	     43.22979094	      2.51309971	     72.02919350	    111.77284184	     78.30428482
      0.01666670	    -10.75480012	      1.33118271	     -3.94835467	      1.31501341	      0.92035864	     -0.03823156	     10.69075159	    -12.17764590	    -10.14259305	      0.52570653	      0.00917531	     -0.33993258	      1.62725107	     -6.91430653	      9.86554293	     -5.40333385	    -11.20709603	      0.77085969	      0.01345404	      1.42563946	     -1.49636172	     -6.91430653	      6.53473487	     -3.81971743	     -2.55201477	     45.82937018	     10.14912118	     59.23379563	    127.89413611	     93.05578772	     44.02185085	      1.15332595	     70.52187592	    114.35915755	     96.39433479
      0.03333330	    -10.49328666	      0.96305825	     -3.26728189	      1.31476378	      0.92078194	     -0.03825965	     10.13185721	    -11.87801221	    -10.99338808	      0.46804403	      0.00816891	     -0.32915817	      1.62464333	     -7.04222281	     10.07921931	     -5.63957476	    -11.95235406	      1.45500345	      0.02539460	      1.87637657	     -2.35657125	     -7.04222281	      6.11287862	     -3.71550245	     -3.91760759	     45.83309410	     12.08233018	     58.13227817	    127.73178382	     97.64246612	     43.72325947	     -0.86768122	     69.99722257	    115.30857475	    102.67377543
      0.05000000	    -10.36068281	      0.91722281	     -2.84550275	      1.31063021	      0.92022970	     -0.04316188	     10.04606733	    -12.22196960	    -11.74639860	      0.48326568	      0.00843458	     -0.89489046	      2.29638026	     -7.05053324	     10.67474055	     -5.58235430	    -12.48923296	      2.39705528	      0.04183651	      2.66817879	     -2.54067085	     -7.05053324	      5.48218647	     -3.97698545	     -4.65361090	     45.90523817	     12.56777736	     57.96193636	    127.56068658	     97.92508482	     44.33829651	     -1.13304574	     70.63432676	    115.28169321	    102.89296916
      0.06666670	    -10.45078128	      0.80159077	     -2.64481217	      1.31074955	      0.91756875	     -0.04371220	     10.16345405	    -12.30846192	    -12.17086003	      0.54501427	      0.00951229	     -0.97183531	      2.70935566	     -7.19113661	     11.13433295	     -5.65821343	    -12.55972493	      3.06578799	      0.05350809	      3.52143186	     -2.31087229	     -7.19113661	      5.29519595	     -3.93104376	     -5.09016196	     45.88708991	     12.82064807	     57.68643303	    127.33904024	    100.70229124	     44.87122142	     -0.76047072	     70.40538334	    115.31826134	    104.12245152
      0.08333330	    -10.52034343	      0.76555665	     -2.65409879	      1.31182773	      0.91795856	     -0.04363651	     10.25976408	    -12.43521007	    -12.23546663	      0.62411829	      0.01089292	     -1.05348002	      2.72117339	     -7.19304688	     11.39279195	     -5.73248654	    -12.24395228	      3.49885827	      0.06106660	      4.17711268	     -2.28556247	     -7.19304688	      5.22958123	     -3.89300205	     -5.15487868	     45.82744574	     12.89079203	     57.75283524	    127.27693854	    100.71045090	     45.13251639	     -0.28511974	     70.14705945	    115.40212032	    104.09221491
      0.10000000	    -10.81203820	      0.72096701	     -2.64177138	      1.31219328	      0.91809138	     -0.04363245	     10.57263301	    -12.53540498	    -12.34563371	      0.67499355	      0.01178086	     -1.04197335	      2.64080144	     -7.39665009	     11.88452743	     -5.82087497	    -12.01113507	      3.92552889	      0.06851340	      4.92957927	     -1.71365625	     -7.39665009	      5.56482005	     -3.83784112	     -5.21927507	     45.52820010	     12.76032750	     57.70462829	    127.35972372	    100.53091870	     44.97280678	     -0.14836886	     68.98320219	    115.39606844	    102.93390023
      0.11666670	    -11.01966370	      0.72263894	     -2.63384868	      1.31302023	      0.91833003	     -0.04359986	     10.76456901	    -12.65297236	    -12.32983211	      0.68352846	      0.01192982	     -0.94802705	      2.54010688	     -7.48136508	     12.15515956	     -5.83537949	    -11.99706523	      4.10341441	      0.07161809	      5.39506848	     -1.45549194	     -7.48136508	      5.86151514	     -3.86937922	     -4.83286725	     45.22832738	     12.51561322	     57.45792250	    127.54944950	    100.07502062	     44.87737533	     -0.14010599	     68.14748502	    115.30433865	    102.02701125
      0.13333330	    -11.21174024	      0.73240167	     -2.62884807	      1.31282148	      0.91817796	     -0.04356101	     10.94892873	    -12.72604810	    -12.33081428	      0.65960838	      0.01151234	     -0.86738070	      2.39785989	     -7.48753235	     12.30266545	     -5.79763380	    -11.91137477	      4.04268934	      0.07055824	      5.66536804	     -1.36296838	     -7.48753235	      6.12674889	     -3.95749179	     -4.77871091	     45.07140465	     12.33966926	     57.17223842	    127.63017913	     99.33524475	     44.86894887	     -0.17934870	     66.75746478	    115.39848194	    101.40082979
      0.15000000	    -11.35523513	      0.76127959	     -2.73693604	      1.31332519	      0.91837253	     -0.04340882	     11.12815696	    -12.76950028	    -12.17994860	      0.63911160	      0.01115460	     -0.83561547	      2.25992324	     -7.49670881	     12.39224586	     -5.77524798	    -12.00470366	      3.99000995	      0.06963881	      5.91724491	     -1.31784805	     -7.49670881	      6.39540666	     -4.05878166	     -4.94609325	     44.95022357	     13.07875092	     57.96572956	    127.63052975	     98.94190838	     44.95025864	     -0.45224531	     65.48939385	    115.47544495	    100.60277501
      0.16666670	    -11.49045612	      0.77503468	     -2.79579353	      1.31310965	      0.91812422	     -0.04329814	     11.27841030	    -12.78105154	    -12.09616976	      0.61413891	      0.01071875	     -0.78106686	      2.18769056	     -7.49876156	     12.44291752	     -5.74987085	    -12.05572463	      3.81252103	      0.06654104	      6.10466659	     -1.18217001	     -7.49876156	      6.62001567	     -4.12711730	     -5.01504900	     44.82844763	     13.58412015	     58.79300921	    127.61543268	     98.53361025	     45.01889884	     -0.82011532	     65.03924031	    115.37685290	    100.09245193
      0.18333330	    -11.57521645	      0.79358569	     -2.87717566	      1.31350540	      0.91792177	     -0.04321910	     11.37754316	    -12.77598233	    -11.99760230	      0.58148948	      0.01014891	     -0.68908449	      2.12564991	     -7.49940958	     12.40208604	     -5.70112571	    -12.08393956	      3.59874610	      0.06280997	      6.18448688	     -1.17710653	     -7.49940958	      6.80545391	     -4.18547744	     -4.96404104	     44.76500165	     14.09812053	     59.67883125	    127.53254501	     98.36213262	     45.08398859	     -0.96030830	     65.32456717	    115.26129737	     99.71752688
      0.20000000	    -11.64372948	      0.81934457	     -2.97293941	      1.31313118	      0.91778778	     -0.04313539	     11.47318395	    -12.74947975	    -11.84574035	      0.56350422	      0.00983500	     -0.65424542	      1.92649388	     -7.49980851	     12.37448638	     -5.64749860	    -12.22425840	      3.39893169	      0.05932255	      6.23987050	     -1.13012924	     -7.49980851	      6.96132570	     -4.22207840	     -4.66758674	     44.82609884	     14.31110006	     60.20344744	    127.57084981	     98.46163478	     45.02955051	     -0.93426805	     65.29539713	    115.53607937	     99.25219123
      0.21666670	    -11.70776047	      0.80437381	     -2.96893866	      1.30893143	      0.91762727	     -0.04058099	     11.59061597	    -12.65807105	    -11.94722126	      0.57028901	      0.00995342	     -0.60014506	      1.86025835	     -7.49980910	     12.48856026	     -5.67050253	    -12.18997967	      3.32376987	      0.05801073	      6.30981223	     -1.14040449	     -7.49980910	      6.89652576	     -4.31098811	     -4.41352299	     44.93797956	     14.44778400	     60.26669236	    127.53614006	     98.44660087	     45.11833964	     -1.19663135	     65.25195271	    115.45383855	     99.25876543
